<svg width="478" height="512" viewBox="0 0 478 512" fill="none" xmlns="http://www.w3.org/2000/svg">
<path d="M442.974 470C442.974 508.108 299.039 477 234.974 477C170.909 477 30.9736 508.108 30.9736 470C30.9736 431.892 78.0264 295 253 320C317.065 320 416 318 442.974 470Z" fill="#EEEEEE"/>
<ellipse cx="237" cy="130" rx="100" ry="97" fill="#FBFBFB"/>
<path d="M239 288.389C85.1629 288.389 0.439941 361.165 0.439941 493.314C0.439941 503.635 8.80494 512 19.1259 512H458.873C469.194 512 477.559 503.635 477.559 493.314C477.56 361.172 392.837 288.389 239 288.389ZM38.4919 474.628C45.8419 375.822 113.205 325.762 239 325.762C364.795 325.762 432.159 375.822 439.515 474.628H38.4919V474.628Z" fill="#78A1F1"/>
<path d="M239 0C168.335 0 115.049 54.358 115.049 126.437C115.049 200.627 170.653 260.977 239 260.977C307.347 260.977 362.951 200.627 362.951 126.443C362.951 54.358 309.665 0 239 0ZM239 223.611C191.257 223.611 152.421 180.022 152.421 126.443C152.421 74.832 188.834 37.372 239 37.372C288.363 37.372 325.579 75.66 325.579 126.443C325.579 180.022 286.743 223.611 239 223.611Z" fill="#78A1F1"/>
</svg>
