<svg id="Layer_1" enable-background="new 0 0 256 256" height="512" viewBox="0 0 256 256" width="512" xmlns="http://www.w3.org/2000/svg"><g><g><path d="m230.34 106.04c-9.103 0-17.038 5.563-20.33 13.65-2.187 5.281-2.189 11.333 0 16.62 3.251 7.987 11.12 13.65 20.33 13.65 12.13 0 21.96-9.84 21.96-21.96s-9.83-21.96-21.96-21.96z" fill="#f0c020"/></g><g><path d="m196.07 136.31h-96.71c-4.86-10.04-15.04-16.62-26.62-16.62h96.73c4.86 10.04 15.04 16.62 26.6 16.62z" fill="#afafaf"/></g><g><path d="m175.48 130.5h-57c-1.381 0-2.5-1.119-2.5-2.5s1.119-2.5 2.5-2.5h57c1.381 0 2.5 1.119 2.5 2.5s-1.119 2.5-2.5 2.5zm-67 0h-15.123c-1.381 0-2.5-1.119-2.5-2.5s1.119-2.5 2.5-2.5h15.123c1.381 0 2.5 1.119 2.5 2.5s-1.119 2.5-2.5 2.5z" fill="#fff"/></g><g><path d="m210.01 136.31h-13.94c-11.56 0-21.74-6.58-26.6-16.62-.95-1.96-1.71-4.06-2.22-6.27l-8.88-38.14c-1.37-5.92-6.57-10.04-12.64-10.04h-13.45c2.23-5.43 2.12-11.46-.01-16.61h13.46c13.84 0 25.69 9.4 28.82 22.88l8.89 38.15c1.37 5.9 6.56 10.03 12.63 10.03h13.94c-2.187 5.281-2.189 11.333 0 16.62z" fill="#fc5d3d"/></g><g><path d="m208.369 130.189c-9.337 0-12.5.735-12.5-2.5 0-1.381 1.119-2.5 2.5-2.5h10c1.381 0 2.5 1.119 2.5 2.5s-1.119 2.5-2.5 2.5zm-20.723-1.544c-7.268-2.774-12.663-8.981-14.432-16.604l-8.891-38.154c-2.018-8.689-9.663-14.757-18.593-14.757h-11.841c-1.381 0-2.5-1.119-2.5-2.5s1.119-2.5 2.5-2.5h11.841c11.268 0 20.916 7.658 23.462 18.624l8.891 38.154c1.394 6.001 5.635 10.885 11.346 13.064 1.29.493 1.937 1.938 1.444 3.228-.488 1.278-1.921 1.94-3.227 1.445z" fill="#ffcbc2"/></g><g><g><path d="m205.217 52.431c-3.501-1.157-7.117-2.168-9.147-10.913-1.87 8.055-4.865 9.498-9.147 10.913 6.984 2.308 8.037 6.129 9.147 10.913 1.913-8.247 5.079-9.569 9.147-10.913z" fill="#f0c020"/></g></g><g><g><path d="m226.156 80.327c-3.501-1.157-7.117-2.168-9.147-10.913-1.87 8.055-4.865 9.498-9.147 10.913 6.984 2.308 8.037 6.129 9.147 10.913 1.913-8.247 5.079-9.568 9.147-10.913z" fill="#f0c020"/></g></g><g><g><path d="m65.951 188.818c-3.501-1.157-7.117-2.168-9.147-10.913-1.87 8.055-4.865 9.498-9.147 10.913 6.984 2.308 8.037 6.129 9.147 10.913 1.913-8.247 5.078-9.569 9.147-10.913z" fill="#f0c020"/></g></g><g><path d="m45.98 119.69c-3.2-7.78-10.79-13.65-20.32-13.65-12.13 0-21.96 9.84-21.96 21.96s9.83 21.96 21.96 21.96c9.1 0 17.04-5.56 20.33-13.65 2.33-5.62 2.1-11.53-.01-16.62z" fill="#f0c020"/><path d="m138.71 207.37h-15.62c-13.83 0-25.68-9.4-28.82-22.88l-8.88-38.15c-1.37-5.9-6.58-10.03-12.65-10.03h-26.75c2.33-5.62 2.1-11.53-.01-16.62h26.76c11.58 0 21.76 6.58 26.62 16.62.95 1.96 1.7 4.06 2.21 6.27l8.89 38.14c1.37 5.92 6.56 10.04 12.63 10.04h15.62c-2.14 5.21-2.21 11.23 0 16.61z" fill="#fc5d3d"/></g><g><path d="m137.081 201.26h-13.991c-10.983 0-20.382-7.468-22.856-18.16l-8.894-38.154c-2.005-8.69-9.653-14.756-18.6-14.756h-5.084c-1.381 0-2.5-1.119-2.5-2.5s1.119-2.5 2.5-2.5h5.084c11.289 0 20.94 7.659 23.47 18.626l8.893 38.153c1.947 8.416 9.343 14.291 17.986 14.291h13.991c1.381 0 2.5 1.119 2.5 2.5s-1.118 2.5-2.499 2.5zm-79.425-71.071h-10c-1.381 0-2.5-1.119-2.5-2.5s1.119-2.5 2.5-2.5h10c1.381 0 2.5 1.119 2.5 2.5s-1.119 2.5-2.5 2.5z" fill="#ffcbc2"/></g><g fill="#fff"><path d="m25.667 119.64c-4.62 0-8.363 3.743-8.363 8.363 0 4.614 3.743 8.357 8.363 8.357 4.638 0 8.357-3.774 8.357-8.357 0-4.599-3.725-8.363-8.357-8.363z"/><path d="m230.339 119.64c-4.62 0-8.363 3.743-8.363 8.363 0 4.614 3.743 8.357 8.363 8.357 4.638 0 8.357-3.774 8.357-8.357 0-4.599-3.725-8.363-8.357-8.363z"/></g><g><g><path d="m132.27 48.63c-3.063-7.745-10.918-13.66-20.32-13.66-12.14 0-21.97 9.83-21.97 21.97 0 12.12 9.83 21.96 21.97 21.96 8.694 0 16.75-5.107 20.33-13.66 2.228-5.431 2.124-11.456-.01-16.61z" fill="#72c1e8"/></g><path d="m111.948 48.571c-4.62 0-8.363 3.743-8.363 8.363 0 4.614 3.743 8.357 8.363 8.357 4.638 0 8.357-3.774 8.357-8.357 0-4.599-3.725-8.363-8.357-8.363z" fill="#fff"/></g><g><path d="m159.03 177.1c-9.17 0-17.06 5.65-20.32 13.66-2.14 5.21-2.21 11.23 0 16.61 3.06 7.75 10.94 13.66 20.32 13.66 12.14 0 21.98-9.83 21.98-21.97 0-12.12-9.84-21.96-21.98-21.96z" fill="#72c1e8"/><path d="m159.043 190.709c-4.62 0-8.363 3.743-8.363 8.363 0 4.614 3.743 8.357 8.363 8.357 4.638 0 8.357-3.774 8.357-8.357.001-4.599-3.725-8.363-8.357-8.363z" fill="#fff"/></g><g><path d="m186.139 54.804c5.831 1.927 6.493 4.782 7.496 9.104.599 2.578 4.272 2.578 4.871 0 1.665-7.178 3.985-7.944 7.496-9.104 2.279-.753 2.284-3.994 0-4.748-3.283-1.076-5.799-1.795-7.497-9.104-.597-2.573-4.275-2.566-4.87 0-1.667 7.179-3.986 7.945-7.496 9.104-2.279.754-2.284 3.994 0 4.748zm9.94-6.112c.992 1.721 2.105 2.902 3.256 3.759-1.195.872-2.275 2.018-3.221 3.627-.799-1.289-1.882-2.51-3.413-3.593 1.258-.897 2.392-2.088 3.378-3.793z"/><path d="m207.078 82.701c5.831 1.927 6.493 4.782 7.496 9.104.599 2.578 4.272 2.578 4.871 0 1.665-7.178 3.985-7.944 7.496-9.104 2.279-.752 2.284-3.994 0-4.748-3.283-1.076-5.799-1.795-7.497-9.104-.597-2.573-4.275-2.566-4.87 0-1.667 7.179-3.986 7.945-7.496 9.104-2.279.753-2.284 3.993 0 4.748zm9.94-6.113c.992 1.721 2.105 2.902 3.256 3.759-1.195.872-2.275 2.018-3.221 3.627-.799-1.289-1.882-2.51-3.413-3.593 1.258-.897 2.392-2.088 3.378-3.793z"/><path d="m66.735 186.444c-3.283-1.076-5.799-1.795-7.497-9.104-.597-2.573-4.275-2.566-4.87 0-1.667 7.179-3.986 7.945-7.496 9.104-2.279.753-2.284 3.993 0 4.748 5.831 1.927 6.493 4.782 7.496 9.104.599 2.578 4.272 2.578 4.871 0 1.665-7.178 3.985-7.944 7.496-9.104 2.279-.753 2.284-3.994 0-4.748zm-9.888 6.021c-.799-1.289-1.882-2.51-3.413-3.593 1.258-.897 2.392-2.088 3.377-3.793.992 1.721 2.105 2.902 3.256 3.759-1.193.872-2.274 2.018-3.22 3.627z"/><path d="m36.524 128.003c0-5.99-4.871-10.863-10.857-10.863-5.99 0-10.863 4.873-10.863 10.863 0 5.986 4.873 10.857 10.863 10.857 5.987 0 10.857-4.871 10.857-10.857zm-16.72 0c0-3.233 2.63-5.863 5.863-5.863 3.23 0 5.857 2.63 5.857 5.863 0 3.229-2.627 5.857-5.857 5.857-3.233 0-5.863-2.628-5.863-5.857z"/><path d="m230.338 117.14c-5.99 0-10.863 4.873-10.863 10.863 0 5.986 4.873 10.857 10.863 10.857 5.987 0 10.857-4.871 10.857-10.857.001-5.99-4.87-10.863-10.857-10.863zm0 16.72c-3.233 0-5.863-2.628-5.863-5.857 0-3.233 2.63-5.863 5.863-5.863 3.23 0 5.857 2.63 5.857 5.863.001 3.229-2.627 5.857-5.857 5.857z"/><circle cx="126.07" cy="136.31" r="2.5"/><path d="m177.79 85.43c-1.364.316-2.184 1.685-1.86 3 .299 1.307 1.576 2.17 3 1.87 1.429-.352 2.167-1.762 1.86-3.01-.3-1.32-1.66-2.181-3-1.86z"/><path d="m111.948 46.07c-5.99 0-10.863 4.873-10.863 10.863 0 5.986 4.873 10.857 10.863 10.857 5.987 0 10.857-4.871 10.857-10.857.001-5.99-4.87-10.863-10.857-10.863zm0 16.721c-3.233 0-5.863-2.628-5.863-5.857 0-3.233 2.63-5.863 5.863-5.863 3.23 0 5.857 2.63 5.857 5.863.001 3.229-2.627 5.857-5.857 5.857z"/><path d="m159.043 209.929c5.987 0 10.857-4.871 10.857-10.857 0-5.989-4.871-10.862-10.857-10.862-5.99 0-10.863 4.873-10.863 10.862 0 5.986 4.873 10.857 10.863 10.857zm0-16.72c3.23 0 5.857 2.63 5.857 5.862 0 3.229-2.627 5.857-5.857 5.857-3.233 0-5.863-2.628-5.863-5.857 0-3.232 2.63-5.862 5.863-5.862z"/><path d="m230.34 103.54c-9.426 0-17.862 5.31-21.943 13.649h-12.327c-4.89-.01-9.08-3.34-10.2-8.1l-2.81-12.06c-.3-1.32-1.67-2.181-3-1.86-1.359.312-2.184 1.68-1.86 3v.01l2.8 12.05c1.63 7.04 7.82 11.96 15.05 11.96h10.521c-.932 3.808-.932 7.819-.001 11.621h-10.491c-.003 0-.006-.001-.01-.001h-.028c-10.466-.01-19.785-5.836-24.322-15.211-.897-1.852-1.582-3.782-2.034-5.746l-8.879-38.136c-1.632-7.052-7.831-11.977-15.076-11.977h-10.049c.928-3.812.927-7.811-.003-11.61h10.051c12.67.01 23.52 8.62 26.38 20.939l1.55 6.62c.296 1.299 1.565 2.173 3 1.87 1.34-.319 2.18-1.66 1.87-3.01l-1.55-6.61c-3.38-14.609-16.22-24.81-31.23-24.81h-11.854c-3.988-8.235-12.593-13.66-21.946-13.66-13.493 0-24.47 10.978-24.47 24.47 0 13.488 10.977 24.461 24.47 24.461 9.321 0 17.747-5.304 21.926-13.66h11.854c4.904 0 9.101 3.332 10.205 8.107l8.879 38.134c.249 1.08.563 2.15.928 3.208h-93.001-25.134c-3.994-8.15-12.38-13.649-21.947-13.649-13.395 0-24.162 10.704-24.45 23.92-.03 1.37 1.06 2.52 2.44 2.55h.051c1.35 0 2.48-1.1 2.51-2.44.22-10.489 8.95-19.029 19.45-19.029h.01c14.135 0 23.162 14.392 18.01 26.81-2.99 7.36-10.06 12.11-18.02 12.11-4.52 0-8.77-1.51-12.27-4.36-1.03-.84-2.68-.67-3.52.36-.903 1.117-.673 2.667.35 3.51l.01.01c4.34 3.53 9.82 5.48 15.42 5.48h.01c9.461 0 17.895-5.4 21.947-13.649h25.133c4.908 0 9.108 3.329 10.215 8.096l8.88 38.151c3.403 14.609 16.255 24.813 31.254 24.813h13.994c3.987 8.235 12.593 13.66 21.947 13.66 13.498 0 24.479-10.978 24.479-24.47 0-13.488-10.981-24.461-24.479-24.461-9.417 0-17.849 5.312-21.933 13.66h-14.007c-4.898 0-9.09-3.332-10.195-8.107l-8.889-38.134c-.25-1.086-.563-2.156-.924-3.209h12.988c1.38 0 2.5-1.12 2.5-2.5s-1.12-2.5-2.5-2.5h-15.205c-2.633-4.826-6.364-8.783-10.819-11.62h77.919c2.633 4.826 6.361 8.782 10.813 11.62h-42.708c-1.38 0-2.5 1.12-2.5 2.5s1.12 2.5 2.5 2.5h59.972c.009 0 .019.001.028.001h12.328c4.087 8.344 12.521 13.649 21.943 13.649 13.487 0 24.46-10.973 24.46-24.46s-10.974-24.46-24.461-24.46zm-118.39-27.14c-10.736 0-19.47-8.73-19.47-19.461 0-10.735 8.734-19.47 19.47-19.47 7.906 0 15.138 4.854 17.995 12.079.005.013.01.025.015.037 1.928 4.656 1.93 10.016.014 14.688-3.083 7.368-10.159 12.127-18.024 12.127zm47.08 103.2c10.741 0 19.479 8.73 19.479 19.461 0 10.735-8.738 19.47-19.479 19.47-7.907 0-15.139-4.854-18.007-12.108-1.917-4.676-1.917-10.038.002-14.72 2.992-7.353 10.059-12.103 18.005-12.103zm-61.92-42.199c.885 1.824 1.565 3.755 2.025 5.746l8.889 38.136c1.632 7.052 7.827 11.977 15.065 11.977h12.19c-.932 3.84-.888 7.955 0 11.61h-12.19c-12.662 0-23.512-8.613-26.385-20.946l-8.88-38.149c-1.636-7.044-7.839-11.964-15.085-11.964h-23.305c.885-3.614.955-7.687-.004-11.621h23.31c10.491-.001 19.829 5.828 24.37 15.211zm133.23 10.059c-7.953 0-15.024-4.746-18.02-12.105-1.935-4.674-1.935-10.035.005-14.723 2.99-7.346 10.062-12.092 18.015-12.092 10.73 0 19.46 8.729 19.46 19.46s-8.73 19.46-19.46 19.46z"/><path d="m4.67 134.939c-1.25.591-1.79 2.08-1.21 3.33.588 1.293 2.151 1.772 3.31 1.21 1.25-.58 1.8-2.069 1.22-3.31-.56-1.219-2.1-1.789-3.32-1.23z"/></g></g></svg>