<svg width="506" height="512" viewBox="0 0 506 512" fill="none" xmlns="http://www.w3.org/2000/svg">
<path d="M420.495 458.664L390.848 459.664H102.405C99.6764 459.664 97.4636 457.425 97.4636 454.664V96.063L395.789 65.875H424.448V454.664C424.448 457.425 423.224 458.664 420.495 458.664Z" fill="#EEF5F6"/>
<path d="M371.41 153.151L342.405 154.151H179.49C176.761 154.151 174.549 151.912 174.549 149.151V116.769C174.549 114.008 176.761 111.769 179.49 111.769H342.24L371.41 112.769C374.139 112.769 375.363 114.008 375.363 116.769V149.151C375.363 151.912 374.139 153.151 371.41 153.151Z" fill="#FFD783"/>
<path d="M208.49 242.601L193.694 241.601H184.456C181.727 241.601 179.514 243.84 179.514 246.601V281.296H212.443V246.601C212.443 243.84 211.219 242.601 208.49 242.601V242.601Z" fill="#B3DAFE"/>
<path d="M284.467 214.762L268.825 213.762H260.433C257.703 213.762 255.491 216.001 255.491 218.762V281.296H288.42V218.762C288.42 216 287.196 214.762 284.467 214.762Z" fill="#8089FD"/>
<path d="M355.445 192.651L338.658 191.651H331.412C328.682 191.651 326.47 193.89 326.47 196.651V281.297H343.587H359.398V196.651C359.398 193.889 358.173 192.651 355.445 192.651Z" fill="#FFD783"/>
<path d="M420.438 94.0601V452.66C420.438 455.43 418.224 457.66 415.496 457.66H385.848C388.576 457.66 390.789 455.43 390.789 452.66V63.8701L420.438 94.0601Z" fill="#DEECF1"/>
<path d="M424.448 95.063H97.4636V46.5C97.4636 43.739 99.6764 41.5 102.405 41.5H390.848L420.495 42.5C423.225 42.5 424.448 43.739 424.448 46.5V95.063Z" fill="#8089FD"/>
<path d="M423.438 46.5V95.06H393.789V46.5C393.789 43.74 391.576 41.5 388.848 41.5H418.496C421.224 41.5 423.438 43.74 423.438 46.5Z" fill="#6486E6"/>
<path d="M372.356 116.77V149.15C372.356 151.91 370.142 154.15 367.414 154.15H337.766C340.494 154.15 342.707 151.91 342.707 149.15V116.77C342.707 114.01 340.494 111.77 337.766 111.77H367.414C370.142 111.77 372.356 114.01 372.356 116.77V116.77Z" fill="#FFC344"/>
<path d="M360.387 196.65V281.3H343.586V196.65C343.586 193.89 341.372 191.65 338.645 191.65H355.446C358.173 191.65 360.387 193.89 360.387 196.65Z" fill="#FFC344"/>
<path d="M283.411 218.76V281.3H266.61V218.76C266.61 216 264.397 213.76 261.669 213.76H278.47C281.197 213.76 283.411 216 283.411 218.76V218.76Z" fill="#6486E6"/>
<path d="M213.435 246.6V281.3H198.611V246.6C198.611 243.84 196.397 241.6 193.67 241.6H208.494C211.222 241.6 213.435 243.84 213.435 246.6V246.6Z" fill="#8AC9FE"/>
<path d="M358.352 317.178H156.549C152.455 317.178 149.136 320.536 149.136 324.678C149.136 328.82 152.455 332.178 156.549 332.178H358.351C362.444 332.178 365.763 328.82 365.763 324.678C365.764 320.536 362.445 317.178 358.352 317.178V317.178Z" fill="white"/>
<path d="M361.352 358.56H159.549C155.455 358.56 152.136 361.918 152.136 366.06C152.136 370.202 155.455 373.56 159.549 373.56H361.351C365.444 373.56 368.763 370.202 368.763 366.06C368.764 361.918 365.445 358.56 361.352 358.56V358.56Z" fill="white"/>
<path d="M123.817 58.7019C119.68 58.7019 116.326 62.0959 116.326 66.2819C116.326 70.4679 119.679 73.8619 123.817 73.8619C127.954 73.8619 131.308 70.4689 131.308 66.2819C131.307 62.0949 127.954 58.7019 123.817 58.7019V58.7019Z" fill="#EB2323"/>
<path d="M151.822 58.7019C147.686 58.7019 144.331 62.0959 144.331 66.2819C144.331 70.4679 147.686 73.8619 151.822 73.8619C155.959 73.8619 159.314 70.4689 159.314 66.2819C159.313 62.0949 155.959 58.7019 151.822 58.7019V58.7019Z" fill="#F0C419"/>
<path d="M183.828 58.7019C179.691 58.7019 176.337 62.0959 176.337 66.2819C176.337 70.4679 179.69 73.8619 183.828 73.8619C187.965 73.8619 191.319 70.4689 191.319 66.2819C191.318 62.0949 187.965 58.7019 183.828 58.7019V58.7019Z" fill="#24AE5F"/>
</svg>
